<svg width="1647" height="1757" xmlns="http://www.w3.org/2000/svg" xmlns:xlink="http://www.w3.org/1999/xlink" xml:space="preserve" overflow="hidden"><g transform="translate(-542 -390)"><rect x="542" y="391" width="1647" height="1756" fill="#E4E4E4"/><text font-family="Arial,Arial_MSFontService,sans-serif" font-weight="700" font-size="32" transform="matrix(1 0 0 1 575.072 439)">Production </text><text font-family="Arial,Arial_MSFontService,sans-serif" font-weight="700" font-size="32" transform="matrix(1 0 0 1 753.249 439)">Submodel</text><path d="M1048 520.667C1048 515.88 1051.88 512 1056.67 512L1506.33 512C1511.12 512 1515 515.88 1515 520.667L1515 555.333C1515 560.12 1511.12 564 1506.33 564L1056.67 564C1051.88 564 1048 560.12 1048 555.333Z" stroke="#2F5597" stroke-width="2.29167" stroke-miterlimit="8" fill="#8497B0" fill-rule="evenodd"/><text fill="#FFFFFF" font-family="Arial,Arial_MSFontService,sans-serif" font-weight="400" font-size="32" transform="matrix(1 0 0 1 1096.56 550)">prod:ProductionSubmodel</text><text font-family="Arial,Arial_MSFontService,sans-serif" font-weight="400" font-size="28" transform="matrix(0.817154 -0.576419 0.576419 0.817154 1003.71 866)">prod:produces</text><path d="M660 984.667C660 979.88 663.88 976 668.667 976L1119.33 976C1124.12 976 1128 979.88 1128 984.667L1128 1019.33C1128 1024.12 1124.12 1028 1119.33 1028L668.667 1028C663.88 1028 660 1024.12 660 1019.33Z" stroke="#2F5597" stroke-width="2.29167" stroke-miterlimit="8" fill="#8497B0" fill-rule="evenodd"/><text fill="#FFFFFF" font-family="Arial,Arial_MSFontService,sans-serif" font-weight="400" font-size="32" transform="matrix(1 0 0 1 815.915 1014)">prod:Order</text><path d="M658 1224.67C658 1219.88 661.88 1216 666.667 1216L1117.33 1216C1122.12 1216 1126 1219.88 1126 1224.67L1126 1259.33C1126 1264.12 1122.12 1268 1117.33 1268L666.667 1268C661.88 1268 658 1264.12 658 1259.33Z" stroke="#2F5597" stroke-width="2.29167" stroke-miterlimit="8" fill="#8497B0" fill-rule="evenodd"/><text fill="#FFFFFF" font-family="Arial,Arial_MSFontService,sans-serif" font-weight="400" font-size="32" transform="matrix(1 0 0 1 742.412 1254)">prod:PrecastElement</text><path d="M1456 1555.67C1456 1550.88 1459.88 1547 1464.67 1547L1915.33 1547C1920.12 1547 1924 1550.88 1924 1555.67L1924 1590.33C1924 1595.12 1920.12 1599 1915.33 1599L1464.67 1599C1459.88 1599 1456 1595.12 1456 1590.33Z" stroke="#2F5597" stroke-width="2.29167" stroke-miterlimit="8" fill="#8497B0" fill-rule="evenodd"/><text fill="#FFFFFF" font-family="Arial,Arial_MSFontService,sans-serif" font-weight="400" font-size="32" transform="matrix(1 0 0 1 1526.93 1585)">prod:ProductionStation</text><path d="M1500 1822.67C1500 1817.88 1503.88 1814 1508.67 1814L1959.33 1814C1964.12 1814 1968 1817.88 1968 1822.67L1968 1857.33C1968 1862.12 1964.12 1866 1959.33 1866L1508.67 1866C1503.88 1866 1500 1862.12 1500 1857.33Z" stroke="#2F5597" stroke-width="2.29167" stroke-miterlimit="8" fill="#8497B0" fill-rule="evenodd"/><text fill="#FFFFFF" font-family="Arial,Arial_MSFontService,sans-serif" font-weight="400" font-size="32" transform="matrix(1 0 0 1 1570.36 1851)">prod:ConcretingStation</text><path d="M1500 1909.67C1500 1904.88 1503.88 1901 1508.67 1901L1959.33 1901C1964.12 1901 1968 1904.88 1968 1909.67L1968 1944.33C1968 1949.12 1964.12 1953 1959.33 1953L1508.67 1953C1503.88 1953 1500 1949.12 1500 1944.33Z" stroke="#2F5597" stroke-width="2.29167" stroke-miterlimit="8" fill="#8497B0" fill-rule="evenodd"/><text fill="#FFFFFF" font-family="Arial,Arial_MSFontService,sans-serif" font-weight="400" font-size="32" transform="matrix(1 0 0 1 1600.73 1939)">prod:CuringStation</text><path d="M1500 1653.67C1500 1648.88 1503.88 1645 1508.67 1645L1959.33 1645C1964.12 1645 1968 1648.88 1968 1653.67L1968 1688.33C1968 1693.12 1964.12 1697 1959.33 1697L1508.67 1697C1503.88 1697 1500 1693.12 1500 1688.33Z" stroke="#2F5597" stroke-width="2.29167" stroke-miterlimit="8" fill="#8497B0" fill-rule="evenodd"/><text fill="#FFFFFF" font-family="Arial,Arial_MSFontService,sans-serif" font-weight="400" font-size="32" transform="matrix(1 0 0 1 1576.38 1683)">prod:FormworkStation</text><path d="M1500 1991.67C1500 1986.88 1503.88 1983 1508.67 1983L1959.33 1983C1964.12 1983 1968 1986.88 1968 1991.67L1968 2026.33C1968 2031.12 1964.12 2035 1959.33 2035L1508.67 2035C1503.88 2035 1500 2031.12 1500 2026.33Z" stroke="#2F5597" stroke-width="2.29167" stroke-miterlimit="8" fill="#8497B0" fill-rule="evenodd"/><text fill="#FFFFFF" font-family="Arial,Arial_MSFontService,sans-serif" font-weight="400" font-size="32" transform="matrix(1 0 0 1 1584.69 2021)">prod:StrippingStation</text><path d="M1500 1739.67C1500 1734.88 1503.88 1731 1508.67 1731L1959.33 1731C1964.12 1731 1968 1734.88 1968 1739.67L1968 1774.33C1968 1779.12 1964.12 1783 1959.33 1783L1508.67 1783C1503.88 1783 1500 1779.12 1500 1774.33Z" stroke="#2F5597" stroke-width="2.29167" stroke-miterlimit="8" fill="#8497B0" fill-rule="evenodd"/><text fill="#FFFFFF" font-family="Arial,Arial_MSFontService,sans-serif" font-weight="400" font-size="32" transform="matrix(1 0 0 1 1543.44 1769)">prod:ReinforcementStation</text><path d="M686 1818.67C686 1813.88 689.88 1810 694.667 1810L1145.33 1810C1150.12 1810 1154 1813.88 1154 1818.67L1154 1853.33C1154 1858.12 1150.12 1862 1145.33 1862L694.667 1862C689.88 1862 686 1858.12 686 1853.33Z" stroke="#2F5597" stroke-width="2.29167" stroke-miterlimit="8" fill="#8497B0" fill-rule="evenodd"/><text fill="#FFFFFF" font-family="Arial,Arial_MSFontService,sans-serif" font-weight="400" font-size="32" transform="matrix(1 0 0 1 748.387 1848)">prod:ConcretingProcess</text><path d="M686 1906.67C686 1901.88 689.88 1898 694.667 1898L1145.33 1898C1150.12 1898 1154 1901.88 1154 1906.67L1154 1941.33C1154 1946.12 1150.12 1950 1145.33 1950L694.667 1950C689.88 1950 686 1946.12 686 1941.33Z" stroke="#2F5597" stroke-width="2.29167" stroke-miterlimit="8" fill="#8497B0" fill-rule="evenodd"/><text fill="#FFFFFF" font-family="Arial,Arial_MSFontService,sans-serif" font-weight="400" font-size="32" transform="matrix(1 0 0 1 778.752 1936)">prod:CuringProcess</text><path d="M686 1650.67C686 1645.88 689.88 1642 694.667 1642L1145.33 1642C1150.12 1642 1154 1645.88 1154 1650.67L1154 1685.33C1154 1690.12 1150.12 1694 1145.33 1694L694.667 1694C689.88 1694 686 1690.12 686 1685.33Z" stroke="#2F5597" stroke-width="2.29167" stroke-miterlimit="8" fill="#8497B0" fill-rule="evenodd"/><text fill="#FFFFFF" font-family="Arial,Arial_MSFontService,sans-serif" font-weight="400" font-size="32" transform="matrix(1 0 0 1 754.403 1679)">prod:FormworkProcess</text><path d="M686 1988.67C686 1983.88 689.88 1980 694.667 1980L1145.33 1980C1150.12 1980 1154 1983.88 1154 1988.67L1154 2023.33C1154 2028.12 1150.12 2032 1145.33 2032L694.667 2032C689.88 2032 686 2028.12 686 2023.33Z" stroke="#2F5597" stroke-width="2.29167" stroke-miterlimit="8" fill="#8497B0" fill-rule="evenodd"/><text fill="#FFFFFF" font-family="Arial,Arial_MSFontService,sans-serif" font-weight="400" font-size="32" transform="matrix(1 0 0 1 762.71 2017)">prod:StrippingProcess</text><path d="M686 1736.67C686 1731.88 689.88 1728 694.667 1728L1145.33 1728C1150.12 1728 1154 1731.88 1154 1736.67L1154 1771.33C1154 1776.12 1150.12 1780 1145.33 1780L694.667 1780C689.88 1780 686 1776.12 686 1771.33Z" stroke="#2F5597" stroke-width="2.29167" stroke-miterlimit="8" fill="#8497B0" fill-rule="evenodd"/><text fill="#FFFFFF" font-family="Arial,Arial_MSFontService,sans-serif" font-weight="400" font-size="32" transform="matrix(1 0 0 1 721.46 1766)">prod:ReinforcementProcess</text><path d="M0 1.14583-16.0429 1.14583-14.897 0-14.897 38.3746-16.0429 37.2288 190.71 37.2288 190.71 48.474 188.418 48.474 188.418 38.3746 189.564 39.5204-17.1887 39.5204-17.1887-1.14583 0-1.14583ZM203.314 43.8906 189.564 71.3906 175.814 43.8906Z" transform="matrix(1 -1.22465e-16 -1.22465e-16 -1 1500 1670.39)"/><path d="M0 1.14583-15.66 1.14583-14.5141 0-14.5141 125.418-15.66 124.272 190.71 124.272 190.71 134.713 188.418 134.713 188.418 125.418 189.564 126.564-16.8058 126.564-16.8058-1.14583 0-1.14583ZM203.314 130.13 189.564 157.63 175.814 130.13Z" transform="matrix(1 -1.22465e-16 -1.22465e-16 -1 1500 1756.63)"/><path d="M0 1.14583-15.2788 1.14583-14.133 0-14.133 207.93-15.2788 206.784 190.71 206.784 190.71 217.237 188.418 217.237 188.418 207.93 189.564 209.075-16.4246 209.075-16.4246-1.14583 0-1.14583ZM203.314 212.653 189.564 240.153 175.814 212.653Z" transform="matrix(1 -1.22465e-16 -1.22465e-16 -1 1500 1839.15)"/><path d="M0 1.14583-16.8066 1.14583-15.6608 0-15.6608 294.617-16.8066 293.471 190.71 293.471 190.71 305.059 188.418 305.059 188.418 294.617 189.564 295.763-17.9524 295.763-17.9524-1.14583 0-1.14583ZM203.314 300.475 189.564 327.975 175.814 300.475Z" transform="matrix(1 -1.22465e-16 -1.22465e-16 -1 1500 1926.98)"/><path d="M0 1.14583-17.5688 1.14583-16.423 0-16.423 375.863-17.5688 374.717 190.71 374.717 190.71 386.569 188.418 386.569 188.418 375.863 189.564 377.009-18.7147 377.009-18.7147-1.14583 0-1.14583ZM203.314 381.985 189.564 409.485 175.814 381.985Z" transform="matrix(1 -1.22465e-16 -1.22465e-16 -1 1500 2008.49)"/><path d="M0 1.14583-16.0429 1.14583-14.897 0-14.897 38.3746-16.0429 37.2288 190.71 37.2288 190.71 48.474 188.418 48.474 188.418 38.3746 189.564 39.5204-17.1887 39.5204-17.1887-1.14583 0-1.14583ZM203.314 43.8906 189.564 71.3906 175.814 43.8906Z" transform="matrix(1 -1.22465e-16 -1.22465e-16 -1 688 1669.39)"/><path d="M0 1.14583-15.66 1.14583-14.5141 0-14.5141 125.418-15.66 124.272 190.71 124.272 190.71 134.713 188.418 134.713 188.418 125.418 189.564 126.564-16.8058 126.564-16.8058-1.14583 0-1.14583ZM203.314 130.13 189.564 157.63 175.814 130.13Z" transform="matrix(1 -1.22465e-16 -1.22465e-16 -1 688 1755.63)"/><path d="M0 1.14583-15.2788 1.14583-14.133 0-14.133 207.93-15.2788 206.784 190.71 206.784 190.71 217.237 188.418 217.237 188.418 207.93 189.564 209.075-16.4246 209.075-16.4246-1.14583 0-1.14583ZM203.314 212.653 189.564 240.153 175.814 212.653Z" transform="matrix(1 -1.22465e-16 -1.22465e-16 -1 688 1838.15)"/><path d="M0 1.14583-16.8066 1.14583-15.6608 0-15.6608 294.617-16.8066 293.471 190.71 293.471 190.71 305.059 188.418 305.059 188.418 294.617 189.564 295.763-17.9524 295.763-17.9524-1.14583 0-1.14583ZM203.314 300.475 189.564 327.975 175.814 300.475Z" transform="matrix(1 -1.22465e-16 -1.22465e-16 -1 688 1925.98)"/><path d="M0 1.14583-17.5688 1.14583-16.423 0-16.423 375.863-17.5688 374.717 190.71 374.717 190.71 386.569 188.418 386.569 188.418 375.863 189.564 377.009-18.7147 377.009-18.7147-1.14583 0-1.14583ZM203.314 381.985 189.564 409.485 175.814 381.985Z" transform="matrix(1 -1.22465e-16 -1.22465e-16 -1 688 2007.49)"/><path d="M1282.63 702.044 1290.28 707.099 1289.02 709.011 1281.37 703.956ZM1296.01 710.89 1303.66 715.945 1302.4 717.856 1294.75 712.802ZM1309.4 719.736 1317.04 724.79 1315.78 726.702 1308.13 721.647ZM1322.78 728.581 1330.43 733.636 1329.16 735.548 1321.52 730.493ZM1336.16 737.427 1343.81 742.482 1342.54 744.393 1334.9 739.339ZM1349.54 746.273 1357.19 751.328 1355.93 753.239 1348.28 748.185ZM1362.93 755.119 1370.57 760.173 1369.31 762.085 1361.66 757.03ZM1376.31 763.964 1383.96 769.019 1382.69 770.931 1375.04 765.876ZM1389.69 772.81 1397.34 777.865 1396.07 779.776 1388.43 774.722ZM1403.07 781.656 1410.72 786.71 1409.46 788.622 1401.81 783.568ZM1416.46 790.501 1424.1 795.556 1422.84 797.468 1415.19 792.413ZM1429.84 799.347 1437.48 804.402 1436.22 806.314 1428.57 801.259ZM1443.22 808.193 1450.87 813.248 1449.6 815.159 1441.96 810.105ZM1456.6 817.039 1464.25 822.093 1462.99 824.005 1455.34 818.951ZM1469.98 825.885 1477.63 830.939 1476.37 832.851 1468.72 827.796ZM1483.37 834.73 1491.01 839.785 1489.75 841.697 1482.1 836.642ZM1496.75 843.576 1504.4 848.631 1503.13 850.542 1495.49 845.488ZM1510.13 852.422 1517.78 857.476 1516.52 859.388 1508.87 854.333ZM1523.51 861.267 1531.16 866.322 1529.9 868.234 1522.25 863.179ZM1536.9 870.113 1544.54 875.168 1543.28 877.08 1535.63 872.025ZM1550.28 878.959 1557.93 884.014 1556.66 885.925 1549.02 880.871ZM1563.66 887.805 1571.31 892.859 1570.04 894.771 1562.4 889.716ZM1577.04 896.65 1584.69 901.705 1583.43 903.617 1575.78 898.562ZM1590.43 905.496 1598.07 910.551 1596.81 912.463 1589.16 907.408ZM1603.81 914.342 1611.46 919.397 1610.19 921.308 1602.54 916.254ZM1617.19 923.188 1624.84 928.242 1623.57 930.154 1615.93 925.099ZM1630.57 932.033 1638.22 937.088 1636.96 939 1629.31 933.945ZM1643.96 940.879 1651.6 945.934 1650.34 947.846 1642.69 942.791ZM1657.34 949.725 1664.99 954.78 1663.72 956.691 1656.07 951.637ZM1670.72 958.571 1673.58 960.461 1672.32 962.373 1669.46 960.482ZM1676.71 947.42 1692.07 974.054 1661.54 970.361Z"/><path d="M0.659556-0.936974 8.15535 4.33947 6.83624 6.21342-0.659556 0.936974ZM13.7772 8.29681 21.273 13.5733 19.9539 15.4472 12.4581 10.1708ZM26.8948 17.5306 34.3906 22.807 33.0715 24.681 25.5757 19.4045ZM40.0125 26.7644 47.5083 32.0408 46.1891 33.9148 38.6933 28.6383ZM53.1301 35.9982 60.6259 41.2746 59.3068 43.1486 51.811 37.8721ZM66.2477 45.2319 73.7435 50.5084 72.4244 52.3823 64.9286 47.1059ZM79.3654 54.4657 86.8612 59.7422 85.5421 61.6161 78.0463 56.3397ZM92.483 63.6995 99.9788 68.976 98.6597 70.8499 91.1639 65.5735ZM105.601 72.9333 113.096 78.2097 111.777 80.0837 104.282 74.8072ZM118.718 82.1671 126.214 87.4435 124.895 89.3175 117.399 84.041ZM131.836 91.4009 139.332 96.6773 138.013 98.5513 130.517 93.2748ZM144.954 100.635 152.449 105.911 151.13 107.785 143.634 102.509ZM158.071 109.868 165.567 115.145 164.248 117.019 156.752 111.742ZM171.189 119.102 178.685 124.379 177.366 126.253 169.87 120.976ZM184.306 128.336 191.802 133.612 190.483 135.486 182.987 130.21ZM197.424 137.57 204.92 142.846 203.601 144.72 196.105 139.444ZM210.542 146.804 218.038 152.08 216.718 153.954 209.223 148.678ZM223.659 156.037 231.155 161.314 229.836 163.188 222.34 157.911ZM236.777 165.271 244.273 170.548 242.954 172.422 235.458 167.145ZM249.895 174.505 257.39 179.781 256.071 181.655 248.576 176.379ZM263.012 183.739 270.508 189.015 269.189 190.889 261.693 185.613ZM276.13 192.972 283.626 198.249 282.307 200.123 274.811 194.846ZM289.248 202.206 296.743 207.483 295.424 209.357 287.928 204.08ZM302.365 211.44 309.861 216.717 308.542 218.59 301.046 213.314ZM315.483 220.674 322.979 225.95 321.659 227.824 314.164 222.548ZM328.6 229.908 336.096 235.184 334.777 237.058 327.281 231.782ZM341.718 239.141 349.214 244.418 347.895 246.292 340.399 241.015ZM354.836 248.375 362.331 253.652 361.012 255.526 353.517 250.249ZM367.953 257.609 369.704 258.841 368.385 260.715 366.634 259.483ZM373.212 245.897 387.784 272.97 357.382 268.384Z" transform="matrix(-1 0 0 1 1281.78 703)"/><text font-family="Arial,Arial_MSFontService,sans-serif" font-weight="400" font-size="28" transform="matrix(0.823407 0.56745 -0.56745 0.823407 1462.63 785)">prod:consistsOf</text><path d="M1.14579-0.00977598 1.224 9.15656-1.06758 9.17611-1.14579 0.00977598ZM1.28266 16.0313 1.36086 25.1976-0.93072 25.2172-1.00893 16.0509ZM1.41952 32.0724 1.49773 41.2387-0.793856 41.2583-0.872064 32.0919ZM1.55638 48.1135 1.63459 57.2798-0.656993 57.2994-0.735201 48.133ZM1.69325 64.1546 1.77145 73.3209-0.520129 73.3404-0.598337 64.1741ZM1.83011 80.1956 1.90832 89.362-0.383265 89.3815-0.461473 80.2152ZM1.96697 96.2367 2.04518 105.403-0.246402 105.423-0.324609 96.2563ZM2.10384 112.278 2.18205 121.444-0.109538 121.464-0.187746 112.297ZM2.2407 128.319 2.31891 137.485 0.0273257 137.505-0.0508821 128.338ZM2.37756 144.36 2.45577 153.526 0.164189 153.546 0.0859816 144.38ZM2.51443 160.401 2.55191 164.794 0.260329 164.814 0.222845 160.421ZM15.1165 160.104 1.60164 187.72-12.3825 160.338Z" transform="matrix(-1 0 0 1 893.602 1028)"/><rect x="824" y="1032" width="33" height="182" fill="#E4E4E4"/><text font-family="Arial,Arial_MSFontService,sans-serif" font-weight="400" font-size="28" transform="matrix(-1.83697e-16 -1 1 -1.83697e-16 851.12 1204)">prod:hasItem</text><path d="M0.00664736-1.14581 9.17316-1.09264 9.15986 1.19899-0.00664736 1.14581ZM16.048-1.05275 25.2146-0.999572 25.2013 1.29206 16.0347 1.23888ZM32.0894-0.959688 41.256-0.906509 41.2427 1.38512 32.0761 1.33194ZM48.1308-0.866625 57.2974-0.813446 57.2841 1.47818 48.1175 1.425ZM64.1722-0.773562 73.3387-0.720383 73.3254 1.57125 64.1589 1.51807ZM80.2136-0.680499 89.3801-0.62732 89.3668 1.66431 80.2003 1.61113ZM96.255-0.587435 105.422-0.534257 105.408 1.75737 96.2417 1.70419ZM112.296-0.494372 121.463-0.441193 121.45 1.85043 112.283 1.79726ZM128.338-0.401309 137.504-0.34813 137.491 1.9435 128.325 1.89032ZM144.379-0.308246 153.546-0.255067 153.532 2.03656 144.366 1.98338ZM160.421-0.215183 169.587-0.162004 169.574 2.12962 160.407 2.07644ZM176.462-0.12212 185.629-0.0689411 185.615 2.22269 176.449 2.16951ZM192.503-0.0290569 201.67 0.024122 201.657 2.31575 192.49 2.26257ZM208.545 0.0640061 217.711 0.117185 217.698 2.40881 208.531 2.35563ZM224.586 0.157069 233.753 0.210248 233.739 2.50188 224.573 2.4487ZM240.628 0.250132 249.794 0.303311 249.781 2.59494 240.614 2.54176ZM256.669 0.343196 265.836 0.396374 265.822 2.688 256.656 2.63482ZM272.71 0.436259 281.877 0.489438 281.864 2.78107 272.697 2.72789ZM288.752 0.529322 297.918 0.582501 297.905 2.87413 288.738 2.82095ZM304.793 0.622385 307.225 0.636495 307.212 2.92812 304.78 2.91401ZM302.715-11.9941 330.135 1.91526 302.556 15.5055Z" transform="matrix(1 0 0 -1 1128 1001.92)"/><path d="M1458 982.667C1458 977.88 1461.88 974 1466.67 974L1917.33 974C1922.12 974 1926 977.88 1926 982.667L1926 1017.33C1926 1022.12 1922.12 1026 1917.33 1026L1466.67 1026C1461.88 1026 1458 1022.12 1458 1017.33Z" stroke="#2F5597" stroke-width="2.29167" stroke-miterlimit="8" fill="#8497B0" fill-rule="evenodd"/><text fill="#FFFFFF" font-family="Arial,Arial_MSFontService,sans-serif" font-weight="400" font-size="32" transform="matrix(1 0 0 1 1550.17 1012)">prod:ProductionUnit</text><text font-family="Arial,Arial_MSFontService,sans-serif" font-weight="400" font-size="28" transform="matrix(1 0 0 1 1189.24 968)">prod:isProducedBy</text><path d="M1.1458-0.00914495 1.21896 9.15723-1.07264 9.17552-1.1458 0.00914495ZM1.27383 16.032 1.34699 25.1984-0.944608 25.2167-1.01777 16.0503ZM1.40186 32.0732 1.47502 41.2395-0.816579 41.2578-0.889738 32.0915ZM1.52988 48.1143 1.60304 57.2807-0.688549 57.299-0.761709 48.1326ZM1.65791 64.1555 1.73107 73.3218-0.56052 73.3401-0.63368 64.1738ZM1.78594 80.1966 1.8591 89.363-0.432491 89.3813-0.50565 80.2149ZM1.91397 96.2378 1.98713 105.404-0.304461 105.422-0.377621 96.2561ZM2.042 112.279 2.11516 121.445-0.176432 121.464-0.249592 112.297ZM2.17003 128.32 2.24319 137.486-0.0484028 137.505-0.121562 128.338ZM2.29806 144.361 2.37122 153.528 0.0796265 153.546 0.0064669 144.38ZM2.42609 160.402 2.49925 169.569 0.207656 169.587 0.134496 160.421ZM2.55412 176.444 2.62728 185.61 0.335685 185.628 0.262525 176.462ZM2.68215 192.485 2.75531 201.651 0.463714 201.669 0.390555 192.503ZM2.81018 208.526 2.88334 217.692 0.591744 217.711 0.518584 208.544ZM2.93821 224.567 3.01137 233.733 0.719773 233.752 0.646614 224.585ZM3.06624 240.608 3.1394 249.775 0.847802 249.793 0.774643 240.626ZM3.19427 256.649 3.20079 257.467 0.909198 257.485 0.902672 256.668ZM15.768 252.783 2.23789 280.392-11.7311 253.003Z" transform="matrix(-1 0 0 1 892.238 1268)"/><rect x="822" y="1270" width="33" height="273" fill="#E4E4E4"/><text font-family="Arial,Arial_MSFontService,sans-serif" font-weight="400" font-size="28" transform="matrix(-1.83697e-16 -1 1 -1.83697e-16 848.928 1523)">prod:isProducedBy</text><path d="M1.14583-0.00387008 1.17679 9.16274-1.11487 9.17048-1.14583 0.00387008ZM1.20001 16.0377 1.23097 25.2043-1.06069 25.2121-1.09165 16.0454ZM1.25419 32.0793 1.28515 41.2459-1.0065 41.2536-1.03746 32.087ZM1.30837 48.1209 1.33933 57.2875-0.952323 57.2952-0.983283 48.1286ZM1.36255 64.1624 1.39351 73.329-0.898142 73.3368-0.929102 64.1702ZM1.41673 80.204 1.44769 89.3706-0.84396 89.3784-0.874921 80.2117ZM1.47091 96.2456 1.50187 105.412-0.789779 105.42-0.82074 96.2533ZM1.52509 112.287 1.55606 121.454-0.735598 121.462-0.766559 112.295ZM1.57928 128.329 1.61024 137.495-0.681417 137.503-0.712378 128.336ZM1.63346 144.37 1.66442 153.537-0.627236 153.545-0.658196 144.378ZM1.68764 160.412 1.7186 169.578-0.573054 169.586-0.604015 160.42ZM1.74182 176.453 1.77278 185.62-0.518873 185.628-0.549834 176.461ZM1.796 192.495 1.82696 201.662-0.464692 201.669-0.495653 192.503ZM1.85018 208.537 1.88114 217.703-0.410511 217.711-0.441472 208.544ZM1.90436 224.578 1.93532 233.745-0.35633 233.753-0.38729 224.586ZM1.95854 240.62 1.9895 249.786-0.302149 249.794-0.333109 240.628ZM2.01273 256.661 2.04369 265.828-0.247968 265.836-0.278928 256.669ZM2.06691 272.703 2.09787 281.87-0.193787 281.877-0.224747 272.711ZM2.12109 288.744 2.15205 297.911-0.139605 297.919-0.170566 288.752ZM2.17527 304.786 2.20623 313.953-0.0854242 313.96-0.116385 304.794ZM2.22945 320.828 2.26041 329.994-0.031243 330.002-0.0622037 320.835ZM2.28363 336.869 2.31459 346.036 0.0229382 346.044-0.00802254 336.877ZM2.33781 352.911 2.36877 362.077 0.0771192 362.085 0.0461586 352.919ZM2.39199 368.952 2.42295 378.119 0.1313 378.127 0.10034 368.96ZM2.44617 384.994 2.47714 394.161 0.185482 394.168 0.154521 385.002ZM2.50036 401.036 2.53132 410.202 0.239663 410.21 0.208702 401.043ZM2.55454 417.077 2.5855 426.244 0.293844 426.251 0.262883 417.085ZM2.60872 433.119 2.63968 442.285 0.348025 442.293 0.317064 433.126ZM2.6629 449.16 2.69386 458.327 0.402206 458.335 0.371245 449.168ZM2.71708 465.202 2.74804 474.368 0.456387 474.376 0.425427 465.21ZM2.77126 481.243 2.80222 490.41 0.510569 490.418 0.479608 481.251ZM2.82544 497.285 2.82886 498.296 0.537204 498.304 0.533789 497.293ZM15.4175 493.67 1.76043 521.217-12.0824 493.763Z" transform="matrix(-1 0 0 1 1691.76 1026)"/><text font-family="Arial,Arial_MSFontService,sans-serif" font-weight="400" font-size="28" transform="matrix(-1.83697e-16 -1 1 -1.83697e-16 1658.04 1364)">prod:consistsOf</text><path d="M0.0026874-1.14583 9.16933-1.12433 9.16395 1.16733-0.0026874 1.14583ZM16.0443-1.10821 25.2109-1.08671 25.2056 1.20495 16.0389 1.18345ZM32.0859-1.07058 41.2526-1.04908 41.2472 1.24258 32.0806 1.22108ZM48.1276-1.03296 57.2942-1.01146 57.2888 1.2802 48.1222 1.2587ZM64.1692-0.995336 73.3358-0.973837 73.3304 1.31782 64.1638 1.29632ZM80.2108-0.957712 89.3774-0.936213 89.3721 1.35545 80.2054 1.33395ZM96.2524-0.920088 105.419-0.898589 105.414 1.39307 96.2471 1.37157ZM112.294-0.882465 121.461-0.860966 121.455 1.43069 112.289 1.4092ZM128.336-0.844841 137.502-0.823342 137.497 1.46832 128.33 1.44682ZM144.377-0.807218 153.544-0.785718 153.539 1.50594 144.372 1.48444ZM160.419-0.769594 169.586-0.748095 169.58 1.54357 160.414 1.52207ZM176.461-0.73197 185.627-0.710471 185.622 1.58119 176.455 1.55969ZM192.502-0.694347 201.669-0.672847 201.663 1.61881 192.497 1.59731ZM208.544-0.656723 217.71-0.635224 217.705 1.65644 208.538 1.63494ZM224.585-0.619099 233.752-0.5976 233.747 1.69406 224.58 1.67256ZM240.627-0.581476 249.794-0.559977 249.788 1.73168 240.622 1.71018ZM256.669-0.543852 265.835-0.522353 265.83 1.76931 256.663 1.74781ZM272.71-0.506229 281.877-0.484729 281.872 1.80693 272.705 1.78543ZM288.752-0.468605 297.919-0.447106 297.913 1.84455 288.747 1.82306ZM304.794-0.430981 309.3-0.420412 309.295 1.87125 304.788 1.86068ZM304.746-13.0353 332.214 0.779167 304.682 14.4646Z" transform="matrix(1 -1.22465e-16 -1.22465e-16 -1 1124 1573.78)"/><text font-family="Arial,Arial_MSFontService,sans-serif" font-weight="400" font-size="28" transform="matrix(1 0 0 1 1179.93 1608)">prod:isExecutedBy</text><path d="M1048 659.667C1048 654.88 1051.88 651 1056.67 651L1506.33 651C1511.12 651 1515 654.88 1515 659.667L1515 694.334C1515 699.12 1511.12 703 1506.33 703L1056.67 703C1051.88 703 1048 699.12 1048 694.334Z" stroke="#2F5597" stroke-width="2.29167" stroke-miterlimit="8" fill="#8497B0" fill-rule="evenodd"/><text fill="#FFFFFF" font-family="Arial,Arial_MSFontService,sans-serif" font-weight="400" font-size="32" transform="matrix(1 0 0 1 1114.9 689)">prod:ProductionSystem</text><path d="M1283.15 564 1283.15 573.167 1280.85 573.167 1280.85 564ZM1283.15 580.042 1283.15 589.208 1280.85 589.208 1280.85 580.042ZM1283.15 596.083 1283.15 605.25 1280.85 605.25 1280.85 596.083ZM1283.15 612.125 1283.15 621.292 1280.85 621.292 1280.85 612.125ZM1283.15 628.167 1283.15 628.564 1280.85 628.565 1280.85 628.167ZM1295.75 623.981 1282 651.481 1268.25 623.981Z"/><path d="M656 1556.67C656 1551.88 659.88 1548 664.667 1548L1115.33 1548C1120.12 1548 1124 1551.88 1124 1556.67L1124 1591.33C1124 1596.12 1120.12 1600 1115.33 1600L664.667 1600C659.88 1600 656 1596.12 656 1591.33Z" stroke="#2F5597" stroke-width="2.29167" stroke-miterlimit="8" fill="#8497B0" fill-rule="evenodd"/><text fill="#FFFFFF" font-family="Arial,Arial_MSFontService,sans-serif" font-weight="400" font-size="32" transform="matrix(1 0 0 1 718.976 1586)">prod:ProductionProcess</text><text font-family="Arial,Arial_MSFontService,sans-serif" font-weight="400" font-size="28" transform="matrix(1 0 0 1 1314.62 613)">prod:consistsOf</text><path d="M1501 2072.67C1501 2067.88 1504.88 2064 1509.67 2064L1959.33 2064C1964.12 2064 1968 2067.88 1968 2072.67L1968 2107.33C1968 2112.12 1964.12 2116 1959.33 2116L1509.67 2116C1504.88 2116 1501 2112.12 1501 2107.33Z" stroke="#2F5597" stroke-width="2.29167" stroke-miterlimit="8" fill="#8497B0" fill-rule="evenodd"/><text fill="#FFFFFF" font-family="Arial,Arial_MSFontService,sans-serif" font-weight="400" font-size="32" transform="matrix(1 0 0 1 1654.91 2102)">prod:Buffer</text><path d="M0 1.14583-18.3334 1.14583-17.1876 0-17.1876 460.156-18.3334 459.01 190.385 459.01 190.385 468.079 188.094 468.079 188.094 460.156 189.239 461.302-19.4793 461.302-19.4793-1.14583 0-1.14583ZM202.989 463.496 189.239 490.996 175.489 463.496Z" transform="matrix(1 -1.22465e-16 -1.22465e-16 -1 1501 2090)"/><path d="M1924 1571.85 1933.17 1571.85 1933.17 1574.15 1924 1574.15ZM1940.04 1571.85 1949.21 1571.85 1949.21 1574.15 1940.04 1574.15ZM1956.08 1571.85 1965.25 1571.85 1965.25 1574.15 1956.08 1574.15ZM1972.12 1571.85 1981.29 1571.85 1981.29 1574.15 1972.12 1574.15ZM1988.17 1571.85 1997.33 1571.85 1997.33 1574.15 1988.17 1574.15ZM2004.21 1571.85 2013.38 1571.85 2013.38 1574.15 2004.21 1574.15ZM2020.25 1571.85 2029.42 1571.85 2029.42 1574.15 2020.25 1574.15ZM2036.29 1571.85 2045.46 1571.85 2045.46 1574.15 2036.29 1574.15ZM2052.26 1574.21 2052.26 1583.38 2049.97 1583.38 2049.97 1574.21ZM2052.26 1590.26 2052.26 1599.42 2049.97 1599.42 2049.97 1590.26ZM2052.26 1606.3 2052.26 1615.46 2049.97 1615.46 2049.97 1606.3ZM2052.26 1622.34 2052.26 1631.51 2049.97 1631.51 2049.97 1622.34ZM2052.26 1638.38 2052.26 1647.55 2049.97 1647.55 2049.97 1638.38ZM2052.26 1654.42 2052.26 1663.59 2049.97 1663.59 2049.97 1654.42ZM2052.26 1670.46 2052.26 1679.63 2049.97 1679.63 2049.97 1670.46ZM2052.26 1686.51 2052.26 1695.67 2049.97 1695.67 2049.97 1686.51ZM2052.26 1702.55 2052.26 1711.71 2049.97 1711.71 2049.97 1702.55ZM2052.26 1718.59 2052.26 1727.76 2049.97 1727.76 2049.97 1718.59ZM2052.26 1734.63 2052.26 1743.8 2049.97 1743.8 2049.97 1734.63ZM2052.26 1750.67 2052.26 1759.84 2049.97 1759.84 2049.97 1750.67ZM2052.26 1766.71 2052.26 1775.88 2049.97 1775.88 2049.97 1766.71ZM2052.26 1782.76 2052.26 1791.92 2049.97 1791.92 2049.97 1782.76ZM2052.26 1798.8 2052.26 1807.96 2049.97 1807.96 2049.97 1798.8ZM2052.26 1814.84 2052.26 1824.01 2049.97 1824.01 2049.97 1814.84ZM2052.26 1830.88 2052.26 1840.05 2049.97 1840.05 2049.97 1830.88ZM2052.26 1846.92 2052.26 1856.09 2049.97 1856.09 2049.97 1846.92ZM2052.26 1862.96 2052.26 1872.13 2049.97 1872.13 2049.97 1862.96ZM2052.26 1879.01 2052.26 1888.17 2049.97 1888.17 2049.97 1879.01ZM2052.26 1895.05 2052.26 1904.21 2049.97 1904.21 2049.97 1895.05ZM2052.26 1911.09 2052.26 1920.26 2049.97 1920.26 2049.97 1911.09ZM2052.26 1927.13 2052.26 1936.3 2049.97 1936.3 2049.97 1927.13ZM2052.26 1943.17 2052.26 1952.34 2049.97 1952.34 2049.97 1943.17ZM2052.26 1959.21 2052.26 1968.38 2049.97 1968.38 2049.97 1959.21ZM2052.26 1975.26 2052.26 1984.42 2049.97 1984.42 2049.97 1975.26ZM2052.26 1991.3 2052.26 2000.46 2049.97 2000.46 2049.97 1991.3ZM2052.26 2007.34 2052.26 2016.51 2049.97 2016.51 2049.97 2007.34ZM2052.26 2023.38 2052.26 2032.55 2049.97 2032.55 2049.97 2023.38ZM2052.26 2039.42 2052.26 2048.59 2049.97 2048.59 2049.97 2039.42ZM2052.26 2055.46 2052.26 2064.63 2049.97 2064.63 2049.97 2055.46ZM2052.26 2071.51 2052.26 2080.67 2049.97 2080.67 2049.97 2071.51ZM2052.26 2087.55 2052.26 2091.13 2044.38 2091.13 2044.38 2088.83 2051.12 2088.83 2049.97 2089.98 2049.97 2087.55ZM2037.51 2091.13 2028.34 2091.13 2028.34 2088.83 2037.51 2088.83ZM2021.47 2091.13 2012.3 2091.13 2012.3 2088.83 2021.47 2088.83ZM2005.43 2091.13 1996.26 2091.13 1996.26 2088.83 2005.43 2088.83ZM1996.12 2103.73 1968.62 2089.98 1996.12 2076.23Z"/><text font-family="Arial,Arial_MSFontService,sans-serif" font-weight="400" font-size="28" transform="matrix(-1.83697e-16 -1 1 -1.83697e-16 2097.07 1953)">prod:hasBuffer</text><rect x="1556" y="390" width="633" height="334" fill="#FFFFFF"/><path d="M1574 475.854 1724.95 475.855 1724.95 478.146 1574 478.146ZM1720.37 463.25 1747.87 477 1720.37 490.75Z"/><path d="M1574 520.854 1583.17 520.854 1583.17 523.146 1574 523.146ZM1590.04 520.854 1599.21 520.854 1599.21 523.146 1590.04 523.146ZM1606.08 520.854 1615.25 520.854 1615.25 523.146 1606.08 523.146ZM1622.12 520.854 1631.29 520.854 1631.29 523.146 1622.12 523.146ZM1638.17 520.854 1647.33 520.854 1647.33 523.146 1638.17 523.146ZM1654.21 520.854 1663.38 520.855 1663.38 523.146 1654.21 523.146ZM1670.25 520.855 1679.42 520.855 1679.42 523.146 1670.25 523.146ZM1686.29 520.855 1695.46 520.855 1695.46 523.146 1686.29 523.146ZM1702.33 520.855 1711.5 520.855 1711.5 523.146 1702.33 523.146ZM1718.38 520.855 1724.95 520.855 1724.95 523.146 1718.38 523.146ZM1720.37 508.25 1747.87 522.001 1720.37 535.75Z"/><text font-family="Arial,Arial_MSFontService,sans-serif" font-weight="400" font-size="37" transform="matrix(1 0 0 1 1776.58 487)">rdfs:subClassOf</text><text font-family="Arial,Arial_MSFontService,sans-serif" font-weight="400" font-size="37" transform="matrix(1 0 0 1 1776.58 531)">owl:ObjectProperty</text><text font-family="Arial,Arial_MSFontService,sans-serif" font-weight="400" font-size="37" transform="matrix(1 0 0 1 1776.58 575)">owl:DatatypeProperty</text><text font-family="Arial,Arial_MSFontService,sans-serif" font-weight="400" font-size="37" transform="matrix(1 0 0 1 1776.58 619)">rdfs:Class</text><text font-family="Arial,Arial_MSFontService,sans-serif" font-weight="400" font-size="37" transform="matrix(1 0 0 1 1776.58 663)">rdfs:Literal</text><path d="M1574 562.854 1583.17 562.854 1583.17 565.146 1574 565.146ZM1590.04 562.854 1592.33 562.854 1592.33 565.146 1590.04 565.146ZM1599.21 562.854 1608.38 562.854 1608.38 565.146 1599.21 565.146ZM1615.25 562.854 1617.54 562.854 1617.54 565.146 1615.25 565.146ZM1624.42 562.854 1633.58 562.854 1633.58 565.146 1624.42 565.146ZM1640.46 562.854 1642.75 562.854 1642.75 565.146 1640.46 565.146ZM1649.62 562.854 1658.79 562.854 1658.79 565.146 1649.62 565.146ZM1665.67 562.854 1667.96 562.854 1667.96 565.146 1665.67 565.146ZM1674.83 562.854 1684 562.854 1684 565.146 1674.83 565.146ZM1690.88 562.855 1693.17 562.855 1693.17 565.146 1690.88 565.146ZM1700.04 562.855 1709.21 562.855 1709.21 565.146 1700.04 565.146ZM1716.08 562.855 1718.38 562.855 1718.38 565.146 1716.08 565.146ZM1720.37 550.25 1747.87 564 1720.37 577.75Z"/><path d="M1574 592.667C1574 588.985 1576.98 586 1580.67 586L1741.33 586C1745.02 586 1748 588.985 1748 592.667L1748 619.333C1748 623.015 1745.02 626 1741.33 626L1580.67 626C1576.98 626 1574 623.015 1574 619.333Z" stroke="#A6A6A6" stroke-width="2.29167" stroke-miterlimit="8" fill="#BFBFBF" fill-rule="evenodd"/><text fill="#FFFFFF" font-family="Arial,Arial_MSFontService,sans-serif" font-weight="700" font-size="32" transform="matrix(1 0 0 1 1618.19 618)">Class</text><rect x="1573" y="633" width="174" height="40.0002" stroke="#BFBFBF" stroke-width="2.29167" stroke-miterlimit="8" fill="#FFFFFF"/><text fill="#BFBFBF" font-family="Arial,Arial_MSFontService,sans-serif" font-weight="700" font-size="32" transform="matrix(1 0 0 1 1611.81 665)">Literal</text><text font-family="Arial,Arial_MSFontService,sans-serif" font-weight="700" font-size="37" transform="matrix(1 0 0 1 1589.16 443)">Legend</text></g></svg>